solid OpenSCAD_Model
  facet normal -1 0 0
    outer loop
      vertex 0 0 0
      vertex 0 10 7
      vertex 0 10 0
    endloop
  endfacet
  facet normal -1 -0 0
    outer loop
      vertex 0 10 7
      vertex 0 0 0
      vertex 0 0 7
    endloop
  endfacet
  facet normal -0 0 1
    outer loop
      vertex -11 10 10
      vertex 10 0 10
      vertex 10 10 10
    endloop
  endfacet
  facet normal 0 0 1
    outer loop
      vertex 10 0 10
      vertex -11 10 10
      vertex -11 0 10
    endloop
  endfacet
  facet normal 1 -0 0
    outer loop
      vertex 10 0 10
      vertex 10 10 0
      vertex 10 10 10
    endloop
  endfacet
  facet normal 1 0 0
    outer loop
      vertex 10 10 0
      vertex 10 0 10
      vertex 10 0 0
    endloop
  endfacet
  facet normal 0 0 -1
    outer loop
      vertex 0 0 0
      vertex 10 10 0
      vertex 10 0 0
    endloop
  endfacet
  facet normal -0 0 -1
    outer loop
      vertex 10 10 0
      vertex 0 0 0
      vertex 0 10 0
    endloop
  endfacet
  facet normal 0 -1 0
    outer loop
      vertex -48 0 -7
      vertex -38 0 -17
      vertex -33 0 -7
    endloop
  endfacet
  facet normal 0 -1 0
    outer loop
      vertex -48 0 -7
      vertex -38 0 -47
      vertex -38 0 -17
    endloop
  endfacet
  facet normal 0 -1 -0
    outer loop
      vertex -38 0 -47
      vertex -48 0 -57
      vertex 22 0 -47
    endloop
  endfacet
  facet normal 0 -1 0
    outer loop
      vertex -48 0 -57
      vertex -38 0 -47
      vertex -48 0 -7
    endloop
  endfacet
  facet normal 0 -1 -0
    outer loop
      vertex -33 0 -7
      vertex -38 0 -17
      vertex -33 0 -17
    endloop
  endfacet
  facet normal 0 -1 0
    outer loop
      vertex -11 0 10
      vertex -1 0 7
      vertex 10 0 10
    endloop
  endfacet
  facet normal 0 -1 0
    outer loop
      vertex -11 0 10
      vertex -1 0 -7
      vertex -1 0 7
    endloop
  endfacet
  facet normal 0 -1 0
    outer loop
      vertex -11 0 -17
      vertex -1 0 -7
      vertex -11 0 10
    endloop
  endfacet
  facet normal 0 -1 0
    outer loop
      vertex 22 0 -17
      vertex -1 0 -7
      vertex -11 0 -17
    endloop
  endfacet
  facet normal 0 -1 0
    outer loop
      vertex -1 0 -7
      vertex 22 0 -17
      vertex 32 0 -7
    endloop
  endfacet
  facet normal 0 -1 0
    outer loop
      vertex 22 0 -47
      vertex 32 0 -7
      vertex 22 0 -17
    endloop
  endfacet
  facet normal 0 -1 0
    outer loop
      vertex 22 0 -47
      vertex 32 0 -57
      vertex 32 0 -7
    endloop
  endfacet
  facet normal 0 -1 0
    outer loop
      vertex 32 0 -57
      vertex 22 0 -47
      vertex -48 0 -57
    endloop
  endfacet
  facet normal 0 -1 0
    outer loop
      vertex 0 0 7
      vertex 10 0 10
      vertex -1 0 7
    endloop
  endfacet
  facet normal 0 -1 0
    outer loop
      vertex 10 0 0
      vertex 0 0 7
      vertex 0 0 0
    endloop
  endfacet
  facet normal 0 -1 0
    outer loop
      vertex 0 0 7
      vertex 10 0 0
      vertex 10 0 10
    endloop
  endfacet
  facet normal 0 1 0
    outer loop
      vertex 32 10 -7
      vertex 22 10 -17
      vertex -1 10 -7
    endloop
  endfacet
  facet normal 0 1 0
    outer loop
      vertex 32 10 -7
      vertex 22 10 -47
      vertex 22 10 -17
    endloop
  endfacet
  facet normal 0 1 0
    outer loop
      vertex 22 10 -47
      vertex 32 10 -57
      vertex -38 10 -47
    endloop
  endfacet
  facet normal 0 1 -0
    outer loop
      vertex 32 10 -57
      vertex 22 10 -47
      vertex 32 10 -7
    endloop
  endfacet
  facet normal 0 1 0
    outer loop
      vertex 10 10 10
      vertex 0 10 7
      vertex -11 10 10
    endloop
  endfacet
  facet normal 0 1 -0
    outer loop
      vertex 10 10 0
      vertex 0 10 7
      vertex 10 10 10
    endloop
  endfacet
  facet normal 0 1 0
    outer loop
      vertex 0 10 7
      vertex 10 10 0
      vertex 0 10 0
    endloop
  endfacet
  facet normal 0 1 -0
    outer loop
      vertex -1 10 7
      vertex -11 10 10
      vertex 0 10 7
    endloop
  endfacet
  facet normal 0 1 -0
    outer loop
      vertex -1 10 -7
      vertex -11 10 10
      vertex -1 10 7
    endloop
  endfacet
  facet normal 0 1 0
    outer loop
      vertex -1 10 -7
      vertex -11 10 -17
      vertex -11 10 10
    endloop
  endfacet
  facet normal 0 1 0
    outer loop
      vertex -11 10 -17
      vertex -1 10 -7
      vertex 22 10 -17
    endloop
  endfacet
  facet normal 0 1 0
    outer loop
      vertex -38 10 -17
      vertex -33 10 -7
      vertex -33 10 -17
    endloop
  endfacet
  facet normal 0 1 0
    outer loop
      vertex -33 10 -7
      vertex -38 10 -17
      vertex -48 10 -7
    endloop
  endfacet
  facet normal 0 1 -0
    outer loop
      vertex -38 10 -47
      vertex -48 10 -7
      vertex -38 10 -17
    endloop
  endfacet
  facet normal 0 1 0
    outer loop
      vertex -38 10 -47
      vertex -48 10 -57
      vertex -48 10 -7
    endloop
  endfacet
  facet normal 0 1 0
    outer loop
      vertex -48 10 -57
      vertex -38 10 -47
      vertex 32 10 -57
    endloop
  endfacet
  facet normal -1 0 0
    outer loop
      vertex -11 0 -17
      vertex -11 10 10
      vertex -11 10 -17
    endloop
  endfacet
  facet normal -1 -0 0
    outer loop
      vertex -11 10 10
      vertex -11 0 -17
      vertex -11 0 10
    endloop
  endfacet
  facet normal 1 -0 0
    outer loop
      vertex -1 0 7
      vertex -1 10 -7
      vertex -1 10 7
    endloop
  endfacet
  facet normal 1 0 0
    outer loop
      vertex -1 10 -7
      vertex -1 0 7
      vertex -1 0 -7
    endloop
  endfacet
  facet normal 0 0 -1
    outer loop
      vertex -11 0 -17
      vertex 22 10 -17
      vertex 22 0 -17
    endloop
  endfacet
  facet normal -0 0 -1
    outer loop
      vertex 22 10 -17
      vertex -11 0 -17
      vertex -11 10 -17
    endloop
  endfacet
  facet normal -0 0 1
    outer loop
      vertex -1 10 -7
      vertex 32 0 -7
      vertex 32 10 -7
    endloop
  endfacet
  facet normal 0 0 1
    outer loop
      vertex 32 0 -7
      vertex -1 10 -7
      vertex -1 0 -7
    endloop
  endfacet
  facet normal 1 -0 0
    outer loop
      vertex 32 0 -7
      vertex 32 10 -57
      vertex 32 10 -7
    endloop
  endfacet
  facet normal 1 0 0
    outer loop
      vertex 32 10 -57
      vertex 32 0 -7
      vertex 32 0 -57
    endloop
  endfacet
  facet normal 0 0 -1
    outer loop
      vertex -1 0 7
      vertex 0 10 7
      vertex 0 0 7
    endloop
  endfacet
  facet normal -0 0 -1
    outer loop
      vertex 0 10 7
      vertex -1 0 7
      vertex -1 10 7
    endloop
  endfacet
  facet normal -1 0 0
    outer loop
      vertex 22 0 -47
      vertex 22 10 -17
      vertex 22 10 -47
    endloop
  endfacet
  facet normal -1 -0 0
    outer loop
      vertex 22 10 -17
      vertex 22 0 -47
      vertex 22 0 -17
    endloop
  endfacet
  facet normal -0 0 1
    outer loop
      vertex -38 10 -47
      vertex 22 0 -47
      vertex 22 10 -47
    endloop
  endfacet
  facet normal 0 0 1
    outer loop
      vertex 22 0 -47
      vertex -38 10 -47
      vertex -38 0 -47
    endloop
  endfacet
  facet normal 1 -0 0
    outer loop
      vertex -38 0 -17
      vertex -38 10 -47
      vertex -38 10 -17
    endloop
  endfacet
  facet normal 1 0 0
    outer loop
      vertex -38 10 -47
      vertex -38 0 -17
      vertex -38 0 -47
    endloop
  endfacet
  facet normal 0 0 -1
    outer loop
      vertex -48 0 -57
      vertex 32 10 -57
      vertex 32 0 -57
    endloop
  endfacet
  facet normal -0 0 -1
    outer loop
      vertex 32 10 -57
      vertex -48 0 -57
      vertex -48 10 -57
    endloop
  endfacet
  facet normal -1 0 0
    outer loop
      vertex -48 0 -57
      vertex -48 10 -7
      vertex -48 10 -57
    endloop
  endfacet
  facet normal -1 -0 0
    outer loop
      vertex -48 10 -7
      vertex -48 0 -57
      vertex -48 0 -7
    endloop
  endfacet
  facet normal -0 0 1
    outer loop
      vertex -48 10 -7
      vertex -33 0 -7
      vertex -33 10 -7
    endloop
  endfacet
  facet normal 0 0 1
    outer loop
      vertex -33 0 -7
      vertex -48 10 -7
      vertex -48 0 -7
    endloop
  endfacet
  facet normal 1 -0 0
    outer loop
      vertex -33 0 -7
      vertex -33 10 -17
      vertex -33 10 -7
    endloop
  endfacet
  facet normal 1 0 0
    outer loop
      vertex -33 10 -17
      vertex -33 0 -7
      vertex -33 0 -17
    endloop
  endfacet
  facet normal 0 0 -1
    outer loop
      vertex -38 0 -17
      vertex -33 10 -17
      vertex -33 0 -17
    endloop
  endfacet
  facet normal -0 0 -1
    outer loop
      vertex -33 10 -17
      vertex -38 0 -17
      vertex -38 10 -17
    endloop
  endfacet
endsolid OpenSCAD_Model
